<svg width="500" height="500" viewBox="0 0 500 500" fill="none" xmlns="http://www.w3.org/2000/svg">
<rect width="500" height="500" rx="250" fill="#19102A"/>
<path d="M180.312 122L333.202 256.793C349.843 280.298 368.772 333.425 311.36 357.887C290.818 366.64 278.451 371.979 271.516 375.035C271.275 375.358 271.036 375.674 270.798 375.984C264.119 378.656 259.069 380.521 271.516 375.035C287.26 353.948 308.168 306.926 270.798 279.882C232.856 252.424 124.356 163.187 74.8491 122H180.312Z" fill="#61DBFB"/>
<path d="M178.44 301.1L121.028 253.048L111.043 284.25C128.101 301.516 165.46 334.548 178.44 328.557C191.42 322.567 183.848 307.756 178.44 301.1Z" fill="#61DBFB"/>
<ellipse cx="409.959" cy="325.437" rx="32.4501" ry="33.6982" fill="#61DBFB"/>
</svg>
