<?xml version="1.0" standalone="no"?>
<!DOCTYPE svg PUBLIC "-//W3C//DTD SVG 20010904//EN"
 "http://www.w3.org/TR/2001/REC-SVG-20010904/DTD/svg10.dtd">
<svg version="1.0" xmlns="http://www.w3.org/2000/svg"
 width="534.000000pt" height="534.000000pt" viewBox="0 0 534.000000 534.000000"
 preserveAspectRatio="xMidYMid meet">
<metadata>
Created by potrace 1.11, written by Peter Selinger 2001-2013
</metadata>
<g transform="translate(0.000000,534.000000) scale(0.100000,-0.100000)"
fill="#000000" stroke="none">
<path d="M2625 5311 c-16 -10 -79 -44 -140 -76 -60 -32 -132 -70 -160 -85 -27
-15 -95 -51 -150 -80 -55 -29 -122 -65 -150 -80 -27 -15 -90 -49 -140 -75 -49
-26 -112 -60 -140 -75 -27 -15 -99 -53 -160 -85 -60 -32 -162 -86 -225 -120
-63 -34 -164 -88 -225 -120 -60 -31 -132 -70 -160 -85 -80 -44 -173 -94 -270
-145 -49 -26 -121 -64 -160 -85 -38 -21 -122 -65 -185 -98 -63 -34 -131 -70
-150 -80 l-35 -19 -2 -1339 -3 -1339 73 -38 c39 -21 127 -68 195 -103 68 -36
140 -74 160 -86 20 -11 82 -44 137 -73 55 -29 116 -61 135 -72 19 -11 89 -48
155 -83 66 -34 143 -75 170 -90 28 -15 95 -51 150 -80 55 -29 104 -57 109 -61
6 -5 14 -9 18 -9 4 0 8 671 8 1491 l0 1491 798 -5 c438 -2 820 -7 847 -11 28
-3 70 -8 95 -11 147 -18 227 -43 353 -113 85 -47 204 -153 271 -242 86 -112
151 -272 177 -430 13 -83 17 -301 6 -395 -30 -254 -162 -492 -362 -653 -22
-17 -44 -32 -49 -32 -5 0 -17 -6 -25 -14 -56 -48 -265 -127 -376 -141 -33 -5
-69 -9 -80 -11 -20 -3 -175 -13 -285 -19 -30 -2 -200 -4 -376 -4 l-322 -1 2
-631 1 -631 50 -27 c28 -15 97 -52 155 -83 58 -30 148 -79 201 -107 104 -55
112 -57 149 -38 120 63 270 143 295 157 17 10 80 43 140 75 61 32 137 72 170
90 33 18 101 54 150 80 50 26 119 64 155 83 36 19 130 69 210 112 80 43 177
94 215 115 39 21 113 60 165 87 52 28 118 63 145 78 28 15 95 51 150 80 55 29
127 67 160 85 117 63 236 127 438 234 l67 36 0 1336 c0 1057 -3 1339 -12 1346
-7 6 -67 38 -133 73 -140 73 -201 106 -385 205 -136 73 -249 133 -395 210 -44
23 -105 56 -135 72 -30 17 -95 52 -145 78 -189 100 -242 128 -290 155 -27 15
-90 49 -140 75 -49 26 -128 68 -175 93 -47 25 -114 61 -150 80 -35 19 -103 55
-150 80 -47 24 -151 80 -231 123 -81 44 -153 79 -160 78 -8 0 -27 -8 -44 -18z"/>
<path d="M2157 3044 c-3 -5 -5 -219 -5 -476 1 -334 4 -468 12 -470 37 -12 672
3 747 17 9 2 32 6 50 9 142 23 276 119 336 241 64 129 59 320 -13 443 -73 125
-220 211 -384 226 -120 11 -737 19 -743 10z"/>
</g>
</svg>
